<svg xmlns="http://www.w3.org/2000/svg" version="1.1" xmlns:xlink="http://www.w3.org/1999/xlink" xmlns:svgjs="http://svgjs.dev/svgjs" width="80" viewBox="0 0 1000 416"><g transform="matrix(1,0,0,1,-0.6060507485717608,-0.377159384063674)"><svg viewBox="0 0 396 165" data-background-color="#ffffff" preserveAspectRatio="xMidYMid meet" height="416" width="1000" xmlns="http://www.w3.org/2000/svg" xmlns:xlink="http://www.w3.org/1999/xlink"><g id="tight-bounds" transform="matrix(1,0,0,1,0.23999609643442454,0.14959446723679548)"><svg viewBox="0 0 395.52 164.70081187595798" height="164.70081187595798" width="395.52"><g><svg viewBox="0 0 395.52 164.70081187595798" height="164.70081187595798" width="395.52"><g transform="matrix(1,0,0,1,0,101.79170920821345)"><svg viewBox="0 0 395.52 62.90910266774454" height="62.90910266774454" width="395.52"><g><svg viewBox="0 0 395.52 62.90910266774454" height="62.90910266774454" width="395.52"><g><svg viewBox="0 0 395.52 62.90910266774454" height="62.90910266774454" width="395.52"><g transform="matrix(1,0,0,1,0,0)"><svg width="395.52" viewBox="2.25 -38.849998474121094 247.3699951171875 39.349998474121094" height="62.90910266774454" data-palette-color="#1c4b82"><path d="M5.95-20.9L5.95-30.15 11.1-30.15 11.1-20.9 16.7-20.9 16.7-16.85 11.1-16.85 11.1 0 5.95 0 5.95-16.85 2.25-16.85 2.25-20.9 5.95-20.9ZM29.15 0L24 0 24-16.4 20.45-16.4 20.45-20.95 24-20.95 24-29.45Q24-33.95 26.15-36.4 28.3-38.85 32.4-38.85L32.4-38.85Q33.5-38.85 34.85-38.53 36.2-38.2 37.25-37.5L37.25-37.5 35.1-33.75Q34.65-34.25 34.07-34.45 33.5-34.65 32.9-34.65L32.9-34.65Q31.15-34.65 30.15-33.45 29.15-32.25 29.15-29.35L29.15-29.35 29.15-20.95 35.75-20.95 35.75-16.4 29.15-16.4 29.15 0ZM39.34-2.85L39.34-2.85Q39.34-4.05 40.22-4.88 41.09-5.7 42.2-5.7L42.2-5.7Q43.2-5.7 44.07-4.88 44.95-4.05 44.95-2.85L44.95-2.85Q44.95-1.55 44.07-0.78 43.2 0 42.2 0L42.2 0Q41.09 0 40.22-0.78 39.34-1.55 39.34-2.85L39.34-2.85ZM50.24 0L50.24-38.85 55.39-38.85 55.39 0 50.24 0ZM63.24 0L63.24-20.95 68.39-20.95 68.39 0 63.24 0ZM62.94-28.45L62.94-28.45Q62.94-29.65 63.89-30.45 64.84-31.25 65.94-31.25L65.94-31.25Q67.09-31.25 67.99-30.45 68.89-29.65 68.89-28.45L68.89-28.45Q68.89-27.25 67.99-26.48 67.09-25.7 65.94-25.7L65.94-25.7Q64.84-25.7 63.89-26.48 62.94-27.25 62.94-28.45ZM89.24 0.5L89.24 0.5Q86.39 0.5 84.26-0.68 82.14-1.85 80.84-3.65L80.84-3.65 81.39-5.1 81.39 0 76.24 0 76.24-38.85 81.34-38.85 81.34-16.4 81.24-18.25Q82.44-19.85 84.74-20.85 87.04-21.85 89.89-21.85L89.89-21.85Q92.69-21.85 95.01-20.5 97.34-19.15 98.71-16.68 100.09-14.2 100.09-10.8L100.09-10.8Q100.09-7.3 98.59-4.75 97.09-2.2 94.61-0.85 92.14 0.5 89.24 0.5ZM88.14-3.85L88.14-3.85Q90.04-3.85 91.56-4.75 93.09-5.65 93.99-7.25 94.89-8.85 94.89-10.85L94.89-10.85Q94.89-12.8 93.99-14.35 93.09-15.9 91.56-16.82 90.04-17.75 88.14-17.75L88.14-17.75Q86.49-17.75 85.09-17.15 83.69-16.55 82.74-15.5 81.79-14.45 81.39-13.05L81.39-13.05 81.39-8.6Q81.79-7.2 82.74-6.13 83.69-5.05 85.06-4.45 86.44-3.85 88.14-3.85ZM112.29 0.45L112.29 0.45Q109.99 0.45 107.84-0.38 105.69-1.2 104.29-2.8L104.29-2.8 106.49-5.7Q107.84-4.45 109.21-3.83 110.59-3.2 111.84-3.2L111.84-3.2Q112.84-3.2 113.64-3.43 114.44-3.65 114.94-4.2 115.44-4.75 115.44-5.65L115.44-5.65Q115.44-6.7 114.74-7.3 114.04-7.9 112.94-8.3 111.84-8.7 110.59-9.05L110.59-9.05Q107.94-9.9 106.59-11.48 105.24-13.05 105.24-15.2L105.24-15.2Q105.24-16.85 106.06-18.32 106.89-19.8 108.59-20.75 110.29-21.7 112.79-21.7L112.79-21.7Q115.09-21.7 116.84-21.18 118.59-20.65 120.09-19.4L120.09-19.4 118.09-16.3Q117.19-17.2 115.96-17.68 114.74-18.15 113.74-18.2L113.74-18.2Q112.84-18.2 112.09-17.93 111.34-17.65 110.89-17.13 110.44-16.6 110.44-15.9L110.44-15.9Q110.39-14.9 111.11-14.28 111.84-13.65 112.99-13.28 114.14-12.9 115.24-12.5L115.24-12.5Q116.79-12.05 117.99-11.28 119.19-10.5 119.89-9.4 120.59-8.3 120.59-6.6L120.59-6.6Q120.59-4.75 119.69-3.13 118.79-1.5 116.94-0.53 115.09 0.45 112.29 0.45ZM125.13-10.7L125.13-10.7Q125.13-13.85 126.63-16.38 128.13-18.9 130.78-20.35 133.43-21.8 136.83-21.8L136.83-21.8Q140.28-21.8 142.88-20.35 145.48-18.9 146.91-16.38 148.33-13.85 148.33-10.7L148.33-10.7Q148.33-7.55 146.91-5 145.48-2.45 142.88-0.98 140.28 0.5 136.78 0.5L136.78 0.5Q133.43 0.5 130.81-0.85 128.18-2.2 126.66-4.73 125.13-7.25 125.13-10.7ZM130.33-10.65L130.33-10.65Q130.33-8.7 131.18-7.13 132.03-5.55 133.48-4.63 134.93-3.7 136.73-3.7L136.73-3.7Q138.58-3.7 140.03-4.63 141.48-5.55 142.31-7.13 143.13-8.7 143.13-10.65L143.13-10.65Q143.13-12.6 142.31-14.15 141.48-15.7 140.03-16.65 138.58-17.6 136.73-17.6L136.73-17.6Q134.88-17.6 133.43-16.65 131.98-15.7 131.16-14.13 130.33-12.55 130.33-10.65ZM154.43-20.95L159.03-20.95 159.48-16.15 159.28-16.8Q160.33-19.05 162.53-20.43 164.73-21.8 167.73-21.8L167.73-21.8Q170.68-21.8 172.61-20.05 174.53-18.3 174.58-15.5L174.58-15.5 174.58 0 169.43 0 169.43-13.7Q169.38-15.3 168.48-16.32 167.58-17.35 165.68-17.4L165.68-17.4Q163.98-17.4 162.58-16.38 161.18-15.35 160.38-13.6 159.58-11.85 159.58-9.55L159.58-9.55 159.58 0 154.43 0 154.43-20.95ZM182.48-20.95L187.08-20.95 187.53-16.15 187.33-16.8Q188.38-19.05 190.58-20.43 192.78-21.8 195.78-21.8L195.78-21.8Q198.73-21.8 200.65-20.05 202.58-18.3 202.63-15.5L202.63-15.5 202.63 0 197.48 0 197.48-13.7Q197.43-15.3 196.53-16.32 195.63-17.35 193.73-17.4L193.73-17.4Q192.03-17.4 190.63-16.38 189.23-15.35 188.43-13.6 187.63-11.85 187.63-9.55L187.63-9.55 187.63 0 182.48 0 182.48-20.95ZM220.38 0.5L220.38 0.5Q216.73 0.5 214.13-0.93 211.53-2.35 210.13-4.88 208.73-7.4 208.73-10.65L208.73-10.65Q208.73-13.75 210.3-16.28 211.88-18.8 214.55-20.3 217.23-21.8 220.48-21.8L220.48-21.8Q224.68-21.8 227.45-19.35 230.23-16.9 231.18-12.5L231.18-12.5 214.13-6.6 212.93-9.6 226.58-14.5 225.53-13.85Q224.93-15.4 223.63-16.57 222.33-17.75 220.08-17.75L220.08-17.75Q218.28-17.75 216.85-16.88 215.43-16 214.6-14.48 213.78-12.95 213.78-10.9L213.78-10.9Q213.78-8.8 214.65-7.23 215.53-5.65 217.05-4.75 218.58-3.85 220.48-3.85L220.48-3.85Q221.83-3.85 223.05-4.35 224.28-4.85 225.38-5.6L225.38-5.6 227.73-1.8Q226.08-0.75 224.15-0.13 222.23 0.5 220.38 0.5ZM238.87-20.9L238.87-30.15 244.02-30.15 244.02-20.9 249.62-20.9 249.62-16.85 244.02-16.85 244.02 0 238.87 0 238.87-16.85 235.17-16.85 235.17-20.9 238.87-20.9Z" opacity="1" transform="matrix(1,0,0,1,0,0)" fill="#fff" class="undefined-text-0" data-fill-palette-color="primary" id="text-0"></path></svg></g></svg></g></svg></g></svg></g><g transform="matrix(1,0,0,1,154.47648740348845,0)"><svg viewBox="0 0 86.56702519302307 86.94037988682298" height="86.94037988682298" width="86.56702519302307"><g><svg xmlns="http://www.w3.org/2000/svg" xmlns:xlink="http://www.w3.org/1999/xlink" version="1.1" x="0" y="0" viewBox="8.052000999450684 5.129500389099121 41.56199645996094 41.741249084472656" enable-background="new 0 0 58 52" xml:space="preserve" height="86.94037988682298" width="86.56702519302307" class="icon-icon-0" data-fill-palette-color="accent" id="icon-0"><path fill-rule="evenodd" clip-rule="evenodd" d="M49.611 16.958c0-1.65-1.227-3.564-2.725-4.254L31.559 5.647c-1.498-0.69-3.951-0.69-5.45 0l-15.331 7.057c-1.499 0.69-2.726 2.604-2.726 4.254v18.083c0 1.65 1.227 3.564 2.726 4.255l15.331 7.058c1.499 0.689 3.952 0.689 5.45 0l15.33-7.058c1.498-0.69 2.725-2.604 2.725-4.255L49.611 16.958zM44.351 19.476l-11.574 5.327c-0.999 0.459-1.816 1.736-1.816 2.836V39.92c0 1.1-0.9 2-2 2h-0.262c-1.1 0-2-0.9-2-2V27.638c0-1.101-0.817-2.376-1.816-2.836l-11.571-5.325c-0.999-0.46-1.44-1.654-0.98-2.653l0.109-0.239c0.46-0.999 1.653-1.44 2.652-0.98l11.921 5.488c0.999 0.46 2.634 0.46 3.633 0l11.924-5.488c0.999-0.46 2.192-0.019 2.652 0.98l0.109 0.239C45.791 17.822 45.35 19.016 44.351 19.476z" fill="#fff" data-fill-palette-color="accent"></path></svg></g></svg></g><g></g></svg></g><defs></defs></svg><rect width="395.52" height="164.70081187595798" fill="none" stroke="none" visibility="hidden"></rect></g></svg></g></svg>
